<?xml version="1.0" encoding="UTF-8" standalone="no"?>
<!DOCTYPE svg PUBLIC "-//W3C//DTD SVG 1.1//EN" "http://www.w3.org/Graphics/SVG/1.1/DTD/svg11.dtd">
<svg width="100%" height="100%" viewBox="0 0 448 448" version="1.1" xmlns="http://www.w3.org/2000/svg" xmlns:xlink="http://www.w3.org/1999/xlink" xml:space="preserve" xmlns:serif="http://www.serif.com/" style="fill-rule:evenodd;clip-rule:evenodd;stroke-linejoin:round;stroke-miterlimit:2;">
    <g transform="matrix(1.069638,0,0,1.074126,-31.197772,-33.208392)">
        <path d="M448,239.458C448,354.556 354.164,448 238.583,448C123.003,448 29.167,354.556 29.167,239.458C29.167,124.361 123.003,30.917 238.583,30.917C354.164,30.917 448,124.361 448,239.458Z" style="fill:rgb(18,18,18);"/>
    </g>
    <g transform="matrix(0.905612,0,0,0.905612,144.70171,121.213037)">
        <path d="M0,0C0.737,1.708 1.472,3.417 2.199,5.129C2.844,6.635 3.512,8.132 4.188,9.625C5.079,12.23 5.059,14.267 5,17C3.966,17.493 3.966,17.493 2.91,17.996C-14.904,27.013 -24.012,43.691 -30.188,62.125C-41.059,99.449 -41.085,149.729 -22.102,184.406C-15.1,196.612 -6.705,205.753 6,212C5.129,214.656 4.23,217.297 3.312,219.938C3.068,220.692 2.824,221.447 2.572,222.225C1.845,224.278 1.121,226.131 0,228C-4.81,230.244 -9.497,227.996 -14.27,226.422C-38.01,217.373 -57.47,202.207 -70,180C-70.55,179.062 -71.101,178.123 -71.668,177.156C-87.878,147.486 -89.643,107.149 -80.902,75.055C-80.605,74.047 -80.307,73.039 -80,72C-79.651,70.806 -79.301,69.613 -78.941,68.383C-71.053,42.576 -53.663,21.755 -30.047,8.94C-20.86,4.177 -10.592,-0.859 0,0Z" style="fill:rgb(253,253,254);fill-opacity:0.55;fill-rule:nonzero;"/>
    </g>
    <g transform="matrix(0.905612,0,0,0.905612,304.995036,120.307425)">
        <path d="M0,0C20.091,0.563 40.02,14.574 54,28C80.368,55.947 84.984,91.533 84.136,128.305C83.046,157.863 70.653,185.786 49.184,206.129C38.754,215.692 25.906,222.738 12.438,227C11.456,227.312 11.456,227.312 10.455,227.629C6.543,228.781 3.068,229.201 -1,229C-1.842,226.92 -2.673,224.836 -3.5,222.75C-3.964,221.59 -4.428,220.43 -4.906,219.234C-6,216 -6,216 -6,212C-5.322,211.683 -4.644,211.366 -3.945,211.039C9.272,204.412 16.489,194.818 23,182C23.725,180.608 23.725,180.608 24.465,179.188C41.308,144.785 39.273,93.554 27.214,57.66C20.461,39.512 10.168,26.156 -7,17C-6.024,14.353 -5.044,11.707 -4.062,9.062C-3.785,8.308 -3.507,7.553 -3.221,6.775C-1.113,1.113 -1.113,1.113 0,0Z" style="fill:rgb(253,253,254);fill-opacity:0.55;fill-rule:nonzero;"/>
    </g>
    <g transform="matrix(0.905612,0,0,0.905612,262.431271,109.440081)">
        <path d="M0,0C5.554,1.994 9.484,5.288 14,9C15.011,9.806 15.011,9.806 16.043,10.629C40.973,31.279 53.134,63.18 59,94C59.133,94.68 59.266,95.361 59.402,96.062C67.109,137.475 59.049,184.454 36.141,219.875C34.179,222.663 32.13,225.338 30,228C29.562,228.55 29.123,229.101 28.672,229.668C21.116,239.071 13.091,247.273 3,254L0,254C-1.006,251.565 -2.005,249.127 -3,246.688C-3.286,245.997 -3.572,245.307 -3.867,244.596C-5.089,241.585 -6,239.281 -6,236C-4.531,234.527 -4.531,234.527 -2.5,232.938C10.231,222.205 17.491,207.411 23,192C23.23,191.36 23.459,190.721 23.696,190.062C29.454,173.701 32.146,156.387 32.168,139.059C32.171,138.133 32.175,137.207 32.178,136.253C32.183,134.302 32.185,132.352 32.185,130.401C32.187,127.47 32.206,124.539 32.225,121.607C32.27,106.731 31.138,92.535 27.75,78C27.534,77.069 27.318,76.138 27.095,75.179C21.539,52.141 11.185,33.469 -6,17C-4.338,11.143 -2.53,5.541 0,0Z" style="fill:rgb(251,252,254);fill-rule:nonzero;"/>
    </g>
    <g transform="matrix(0.905612,0,0,0.905612,185.454251,108.534469)">
        <path d="M0,0C2.606,2.606 3.44,5.531 4.625,8.938C4.854,9.571 5.084,10.205 5.32,10.857C6.328,13.71 7,15.952 7,19C5.566,20.402 5.566,20.402 3.562,21.938C-19.571,41.393 -28.072,75.161 -31,104C-31.423,110.647 -31.435,117.296 -31.391,123.954C-31.375,126.867 -31.391,129.778 -31.41,132.691C-31.43,151.15 -29.581,169.345 -24,187C-23.795,187.668 -23.591,188.336 -23.38,189.024C-17.377,208.398 -7.646,223.952 7,238C5.338,243.857 3.53,249.459 1,255C-4.549,253.014 -8.485,249.698 -13,246C-13.936,245.252 -13.936,245.252 -14.891,244.488C-41.898,222.286 -55.59,184.982 -59.188,151.25C-60.867,133.283 -61.14,114.809 -58,97C-57.882,96.258 -57.763,95.517 -57.642,94.752C-53.245,67.384 -42.362,43.482 -25,22C-24.327,21.165 -23.654,20.329 -22.961,19.469C-16.353,11.624 -8.469,5.709 0,0Z" style="fill:rgb(251,252,254);fill-rule:nonzero;"/>
    </g>
</svg>

